<svg xmlns="http://www.w3.org/2000/svg" aria-hidden="true" style="position:absolute;width:0;height:0;overflow:hidden">
  <defs>
    <symbol id="icon-check" viewBox="0 0 32 32">
      <path fill="#b4baca" d="M16 0C7.164 0 0 7.163 0 16s7.163 16 16 16 16-7.163 16-16S24.837 0 16 0zm0 30.032C8.28 30.032 2 23.72 2 16S8.28 2 16 2s14 6.281 14 14-6.28 14.032-14 14.032zm6.385-19.886-9.387 9.446-4.227-4.227c-.39-.39-1.024-.39-1.415 0s-.391 1.023 0 1.414l4.95 4.95a1.002 1.002 0 0 0 1.534-.145l9.962-10.024a1 1 0 0 0-1.415-1.414z" style="fill:var(--color1, #b4baca)"/>
    </symbol>
    <symbol id="icon-close" viewBox="0 0 32 32">
      <path fill="#fff" d="m8.532 25.333-1.867-1.867 7.467-7.467-7.467-7.467 1.867-1.867 7.467 7.467 7.467-7.467 1.867 1.867-7.467 7.467 7.467 7.467-1.867 1.867-7.467-7.467-7.467 7.467z" style="fill:var(--color2, #fff)"/>
    </symbol>
    <symbol id="icon-features1" viewBox="0 0 32 32">
      <path fill="#fbc398" d="m22.047 2.467-2.068 5.211 6.947 6.955 3.639-3.642-8.518-8.523zm-10.022.326C5.884 6.979 1.596 12.871 1.433 20.85 5.324 13.361 11.587 6.782 17.384 3.991l-5.359-1.197zm-5.916.967L4.261 5.608l1.363 1.303a26.184 26.184 0 0 1 1.77-1.869L6.109 3.761zm22.114 0-1.617 1.615 1.795 1.797 1.67-1.568-1.848-1.844zM11.727 9.369c-.59.534-1.177 1.1-1.754 1.691a773.614 773.614 0 0 1 4.73 4.547l1.637-1.633-4.613-4.605zm9.582 1.295L4.25 27.697l1.832 1.826c5.218-6.008 10.985-11.656 16.863-17.221l-1.637-1.639zm-1.766 6.51c-.543.526-1.084 1.053-1.623 1.582 3.493 3.461 6.948 7.022 10.322 10.777l1.84-1.836-10.539-10.524z" style="fill:var(--color3, #fbc398)"/>
    </symbol>
    <symbol id="icon-features2" viewBox="0 0 32 32">
      <path fill="#c9ae95" d="M2.733.865 1.135 4.06c1.748.854 3.681 1.528 5.721 2.027L1.26 30.677h6.459l2.578-23.34.064-.59.59.074c3.312.419 6.789.398 10.097-.037l.59-.076.066.592 2.578 23.377h6.457L25.133 6.046c1.978-.495 3.853-1.156 5.553-1.986L29.09.865c-7.026 3.431-19.333 3.431-26.359 0zm17.875 7.147c-.884.103-1.777.177-2.674.223-1.363.65-2.034 1.642-2.207 3.4 1.703-1.911 3.44-2.258 5.074-1.869l-.193-1.754zm-9.215.033-.627 5.686c.535-2.339 1.69-4.576 3.43-5.477a40.043 40.043 0 0 1-2.803-.209zm4.06.832c-2.179 1.063-4.544 6.823-2.385 10.182-1.479.199-2.322-.397-2.713-1.625l-.27 2.445c.579 2.012 1.926 2.75 3.553 2.75-.794 1.342-2.941 1.486-3.934.699l-.103.949c.669 1.794 2.352 2.737 4.646 2.631-1.148 1.48-1.927 1.508-3.941.875 2.442 3.046 6.473 1.161 7.445-1.971.869 1.394-.186 3.999-2.773 4.234 5.182.824 6.586-3.934 3.57-7.775 1.323.151 2.955.694 3.895 2.394l-.676-6.139c-1.583-1.975-4.72-1.231-4.16-2.898.284-.847 2.162-1.034 2.627.693.777-2.566-2.328-3.106-3.285-1.861 1.028-1.843 3.137-1.746 4.32-.447l-.314-2.844c-2.084-.822-4.548.528-5.574 3.291-.801-1.323-1.33-4.159.072-5.584zm5.752 15.951c.574 2.685-.465 5.102-2.801 5.813l4.701.016-.418-3.789c-.471-.905-.886-1.523-1.483-2.039zM9.176 28.127l-.281 2.553h4.24c-1.734-.519-3.045-1.159-3.959-2.553z" style="fill:var(--color4, #c9ae95)"/>
    </symbol>
    <symbol id="icon-features3" viewBox="0 0 32 32">
      <path fill="#f3e4e3" d="M9.598 1.276 6.821 4.424l3.981 18.194-1.172.11L5.767 5.071l-3.48 3.537 4.606 18.123 2.575-2.954.83.825-2.732 3.134 12.566 2.986 3.357-3.095-12.029-3.129.318-1.124 12.499 3.251 6.492-12.206-4.301-7.999L9.6 1.276zm5.12 3.244c5.039.048 10.554 4.96 9.714 10.311-1.759-4.25-5.795-8.31-10.35-7.23-3.938.934-.324 5.025 4.114 6.106 4.901 1.194 10.547 5.204 6.811 9.155-3.448 3.646-9.947.127-9.42-4.233 1.116 2.04 5.111 5.35 7.543 2.715 3.41-3.693-4.858-5.846-7.642-7.055-2.865-1.244-8.681-5.375-5.068-8.319 1.257-1.024 2.755-1.465 4.297-1.45zm1.368 3.853c.446.003.948.053 1.495.153-1.584.711-1.893 1.947-1.595 3.434-3.045-2.237-2.306-3.601.1-3.587zm8.793 1.337c2.419 1.079 3.343 4.179.553 6.002.418-2.024.395-4.031-.553-6.002zm-9.456 5.695c.314 0 .663.093.993.283.753.435 1.117 1.214.813 1.74s-1.16.6-1.913.166c-.753-.435-1.117-1.214-.813-1.74.171-.296.517-.449.92-.449z" style="fill:var(--color5, #f3e4e3)"/>
    </symbol>
    <symbol id="icon-features4" viewBox="0 0 32 32">
      <path fill="#e9a6a7" d="M30.941 1.066 20.21 4.023 1.188 23.045v3.51L19.78 7.963c1.381-1.381 2.765-1.953 3.854-1.908 2.395.1 3.429 3.063.365 6.127L5.331 30.813h3.42L27.874 11.69 30.94 1.067zm-8.392 6.809-1.168.02.023 1.435-1.436-.023-.02 1.168 1.475.025.026 1.475 1.168-.02-.023-1.435 1.436.023.019-1.168-1.475-.025-.026-1.475zm-4.319 3.844-1.139.258.449 1.994.082.367.367.076 1.951.412.242-1.143-.85-.18.783-.781-.826-.826-.832.832-.228-1.01zm-3.107 2.39-.141 1.76-1.717.113.078 1.166 1.928-.127 1.121 1.121.826-.826-1.094-1.094.162-2.02-1.164-.094zm-2.715 3.477-1.143.242.451 2.133-2.178-.43-.227 1.146 3.912.77-.184-.865-.633-2.996zm-3.562 4.756-1.049 1.049L6.066 23l-.256 1.141 1.629.367.334 1.584 1.145-.24-.336-1.596 1.09-1.088-.826-.826zM5.274 25.15l-1.168.02.024 1.435-1.434-.023-.02 1.168 1.473.023.025 1.475 1.168-.02-.068-4.078zm-3.366 4.127-.719.721v.814h.838l.707-.709-.826-.826z" style="fill:var(--color6, #e9a6a7)"/>
    </symbol>
    <symbol id="icon-menu" viewBox="0 0 32 32">
      <path fill="#fff" d="M4 24v-2.667h24V24H4zm0-6.667v-2.667h24v2.667H4zm0-6.666V8h24v2.667H4z" style="fill:var(--color2, #fff)"/>
    </symbol>
  </defs>
</svg>
